#Comment line ignore any data following # character 
#Hierarchical Translation and Rotation (.htr) file 
[Header]	
#Header keywords are followed by a single value 
FileType HTR		#Single word string
DataType HTRS		#Translation followed by rotation and scale data
FileVersion 1		#integer
NumSegments 64		#integer
NumFrames 3		#integer
DataFrameRate 30		#integer, data frame rate in this file
EulerRotationOrder ZYX
CalibrationUnits mm
RotationUnits Degrees
GlobalAxisofGravity Y
BoneLengthAxis Y
ScaleFactor 1.00
[SegmentNames&Hierarchy]
#CHILD	PARENT
Pinger_Root GLOBAL
Pelvis Pinger_Root
L_Hip Pelvis
R_Hip Pelvis
Rear_Leg01 Pelvis
Spine1 Pelvis
L_Leg01 L_Hip
L_Leg02 L_Leg01
L_Leg03 L_Leg02
L_Foot L_Leg03
L_Toe1_01 L_Foot
L_Toe2_01 L_Foot
L_Toe3_01 L_Foot
planeAlignerLeft L_Foot
L_Toe1_02 L_Toe1_01
L_Toe1_03 L_Toe1_02
L_Toe2_02 L_Toe2_01
L_Toe2_03 L_Toe2_02
L_Toe3_02 L_Toe3_01
L_Toe3_03 L_Toe3_02
planeLockWeightLeft planeAlignerLeft
R_Leg01 R_Hip
R_Leg02 R_Leg01
R_Leg03 R_Leg02
R_Foot R_Leg03
planeAlignerRight R_Foot
R_Toe1_01 R_Foot
R_Toe2_01 R_Foot
R_Toe3_01 R_Foot
planeLockWeightRight planeAlignerRight
R_Toe1_02 R_Toe1_01
R_Toe1_03 R_Toe1_02
R_Toe2_02 R_Toe2_01
R_Toe2_03 R_Toe2_02
R_Toe3_02 R_Toe3_01
R_Toe3_03 R_Toe3_02
Rear_Leg02 Rear_Leg01
Rear_Leg03 Rear_Leg02
Rear_Leg04 Rear_Leg03
Rear_Foot Rear_Leg04
planeAlignerCenter Rear_Foot
Rear_Toe1_01 Rear_Foot
Rear_Toe2_01 Rear_Foot
Rear_Toe3_01 Rear_Foot
planeLockWeightCenter planeAlignerCenter
Rear_Toe1_02 Rear_Toe1_01
Rear_Toe1_03 Rear_Toe1_02
Rear_Toe2_02 Rear_Toe2_01
Rear_Toe2_03 Rear_Toe2_02
Rear_Toe3_02 Rear_Toe3_01
Rear_Toe3_03 Rear_Toe3_02
Back_Bone Spine1
Head Spine1
Motor_Bone Back_Bone
Ping_Mechanism Back_Bone
BN_LookIK Head
bottomMouth Head
L_Mouth01 Head
L_mouthFront Head
mouthGun Head
R_Mouth01 Head
R_mouthFront Head
TopMouth Head
weapon_bone Head
[BasePosition]
#SegmentName Tx, Ty, Tz, Rx, Ry, Rz, BoneLength
Pinger_Root 0.000000 0.000000 0.000000 -90.000000 0.000000 0.000000 10.000000 
Pelvis 0.000000 0.000000 0.000000 0.000000 0.000000 0.000000 10.000000 
L_Hip 0.000000 0.000000 0.000000 0.000000 0.000000 0.000000 10.000000 
R_Hip 0.000000 0.000000 0.000000 0.000000 0.000000 0.000000 10.000000 
Rear_Leg01 0.000000 0.000000 0.000000 0.000000 0.000000 0.000000 10.000000 
Spine1 0.000000 0.000000 0.000000 0.000000 0.000000 0.000000 10.000000 
L_Leg01 0.000000 0.000000 0.000000 0.000000 0.000000 0.000000 10.000000 
L_Leg02 0.000000 0.000000 0.000000 0.000000 0.000000 0.000000 10.000000 
L_Leg03 0.000000 0.000000 0.000000 0.000000 0.000000 0.000000 10.000000 
L_Foot 0.000000 0.000000 0.000000 0.000000 0.000000 0.000000 10.000000 
L_Toe1_01 0.000000 0.000000 0.000000 0.000000 0.000000 0.000000 10.000000 
L_Toe2_01 0.000000 0.000000 0.000000 0.000000 0.000000 0.000000 10.000000 
L_Toe3_01 0.000000 0.000000 0.000000 0.000000 0.000000 0.000000 10.000000 
planeAlignerLeft 0.000000 0.000000 0.000000 0.000000 0.000000 0.000000 10.000000 
L_Toe1_02 0.000000 0.000000 0.000000 0.000000 0.000000 0.000000 10.000000 
L_Toe1_03 0.000000 0.000000 0.000000 0.000000 0.000000 0.000000 10.000000 
L_Toe2_02 0.000000 0.000000 0.000000 0.000000 0.000000 0.000000 10.000000 
L_Toe2_03 0.000000 0.000000 0.000000 0.000000 0.000000 0.000000 10.000000 
L_Toe3_02 0.000000 0.000000 0.000000 0.000000 0.000000 0.000000 10.000000 
L_Toe3_03 0.000000 0.000000 0.000000 0.000000 0.000000 0.000000 10.000000 
planeLockWeightLeft 0.000000 0.000000 0.000000 0.000000 0.000000 0.000000 10.000000 
R_Leg01 0.000000 0.000000 0.000000 0.000000 0.000000 0.000000 10.000000 
R_Leg02 0.000000 0.000000 0.000000 0.000000 0.000000 0.000000 10.000000 
R_Leg03 0.000000 0.000000 0.000000 0.000000 0.000000 0.000000 10.000000 
R_Foot 0.000000 0.000000 0.000000 0.000000 0.000000 0.000000 10.000000 
planeAlignerRight 0.000000 0.000000 0.000000 0.000000 0.000000 0.000000 10.000000 
R_Toe1_01 0.000000 0.000000 0.000000 0.000000 0.000000 0.000000 10.000000 
R_Toe2_01 0.000000 0.000000 0.000000 0.000000 0.000000 0.000000 10.000000 
R_Toe3_01 0.000000 0.000000 0.000000 0.000000 0.000000 0.000000 10.000000 
planeLockWeightRight 0.000000 0.000000 0.000000 0.000000 0.000000 0.000000 10.000000 
R_Toe1_02 0.000000 0.000000 0.000000 0.000000 0.000000 0.000000 10.000000 
R_Toe1_03 0.000000 0.000000 0.000000 0.000000 0.000000 0.000000 10.000000 
R_Toe2_02 0.000000 0.000000 0.000000 0.000000 0.000000 0.000000 10.000000 
R_Toe2_03 0.000000 0.000000 0.000000 0.000000 0.000000 0.000000 10.000000 
R_Toe3_02 0.000000 0.000000 0.000000 0.000000 0.000000 0.000000 10.000000 
R_Toe3_03 0.000000 0.000000 0.000000 0.000000 0.000000 0.000000 10.000000 
Rear_Leg02 0.000000 0.000000 0.000000 0.000000 0.000000 0.000000 10.000000 
Rear_Leg03 0.000000 0.000000 0.000000 0.000000 0.000000 0.000000 10.000000 
Rear_Leg04 0.000000 0.000000 0.000000 0.000000 0.000000 0.000000 10.000000 
Rear_Foot 0.000000 0.000000 0.000000 0.000000 0.000000 0.000000 10.000000 
planeAlignerCenter 0.000000 0.000000 0.000000 0.000000 0.000000 0.000000 10.000000 
Rear_Toe1_01 0.000000 0.000000 0.000000 0.000000 0.000000 0.000000 10.000000 
Rear_Toe2_01 0.000000 0.000000 0.000000 0.000000 0.000000 0.000000 10.000000 
Rear_Toe3_01 0.000000 0.000000 0.000000 0.000000 0.000000 0.000000 10.000000 
planeLockWeightCenter 0.000000 0.000000 0.000000 0.000000 0.000000 0.000000 10.000000 
Rear_Toe1_02 0.000000 0.000000 0.000000 0.000000 0.000000 0.000000 10.000000 
Rear_Toe1_03 0.000000 0.000000 0.000000 0.000000 0.000000 0.000000 10.000000 
Rear_Toe2_02 0.000000 0.000000 0.000000 0.000000 0.000000 0.000000 10.000000 
Rear_Toe2_03 0.000000 0.000000 0.000000 0.000000 0.000000 0.000000 10.000000 
Rear_Toe3_02 0.000000 0.000000 0.000000 0.000000 0.000000 0.000000 10.000000 
Rear_Toe3_03 0.000000 0.000000 0.000000 0.000000 0.000000 0.000000 10.000000 
Back_Bone 0.000000 0.000000 0.000000 0.000000 0.000000 0.000000 10.000000 
Head 0.000000 0.000000 0.000000 0.000000 0.000000 0.000000 10.000000 
Motor_Bone 0.000000 0.000000 0.000000 0.000000 0.000000 0.000000 10.000000 
Ping_Mechanism 0.000000 0.000000 0.000000 0.000000 0.000000 0.000000 10.000000 
BN_LookIK 0.000000 0.000000 0.000000 0.000000 0.000000 0.000000 10.000000 
bottomMouth 0.000000 0.000000 0.000000 0.000000 0.000000 0.000000 10.000000 
L_Mouth01 0.000000 0.000000 0.000000 0.000000 0.000000 0.000000 10.000000 
L_mouthFront 0.000000 0.000000 0.000000 0.000000 0.000000 0.000000 10.000000 
mouthGun 0.000000 0.000000 0.000000 0.000000 0.000000 0.000000 10.000000 
R_Mouth01 0.000000 0.000000 0.000000 0.000000 0.000000 0.000000 10.000000 
R_mouthFront 0.000000 0.000000 0.000000 0.000000 0.000000 0.000000 10.000000 
TopMouth 0.000000 0.000000 0.000000 0.000000 0.000000 0.000000 10.000000 
weapon_bone 0.000000 0.000000 0.000000 0.000000 0.000000 0.000000 10.000000 
#Beginning of Data. Separated by tabs
#Fr	Tx	Ty	Tz	Rx	Ry	Rz	SF
[Pinger_Root]
6 -0.000003 -400.874603 0.000000 -0.000075 -0.000000 -0.000020 400.874603
7 -0.000004 -489.446198 0.000000 -0.000075 -0.000000 -0.000020 489.446198
8 -0.000005 -580.000122 0.000000 -0.000075 -0.000000 -0.000020 580.000122
[Pelvis]
6 -85.216515 511.320770 5049.968262 101.875732 -82.712151 -110.099045 5076.503906
7 -122.819489 519.196716 5044.399902 94.095779 -79.449989 -101.953629 5072.535645
8 -151.187485 527.348328 5037.044434 88.876625 -76.716515 -96.313011 5066.830566
[L_Hip]
6 5.766392 125.831482 872.656799 -178.253311 -81.787712 87.381248 881.701050
7 5.766392 125.831482 872.656799 -178.253311 -81.787758 87.381340 881.701050
8 5.766392 125.831482 872.656799 -178.253311 -81.787758 87.381340 881.701050
[R_Hip]
6 5.765438 125.836372 -872.654907 -1.746713 81.787666 87.381149 881.699829
7 5.765438 125.836372 -872.654907 -1.746690 81.787712 87.381248 881.699829
8 5.765438 125.836372 -872.654907 -1.746690 81.787712 87.381248 881.699829
[Rear_Leg01]
6 -192.298416 -925.602966 -0.001907 172.244843 12.797180 -113.234833 945.367432
7 -192.298416 -925.602966 -0.001907 168.421402 14.496752 -110.118538 945.367432
8 -192.298416 -925.602966 -0.001907 162.154877 16.641439 -109.011803 945.367432
[Spine1]
6 290.604584 5.007505 0.000477 10.475039 -3.216122 37.181889 290.647736
7 290.604584 5.007505 0.000477 10.124310 -3.777674 40.962585 290.647736
8 290.604584 5.007505 0.000477 9.457599 -4.485782 44.121037 290.647736
[L_Leg01]
6 761.932007 -0.002384 -0.069261 67.974197 -4.876887 -70.677612 761.932068
7 761.932007 -0.002384 -0.069261 69.080070 -4.276694 -71.968399 761.932068
8 761.932007 -0.002384 -0.069261 69.964439 -3.258654 -73.748024 761.932068
[L_Leg02]
6 1441.140503 -0.000954 -0.000715 -1.384069 0.644100 -105.649094 1441.140503
7 1441.140503 -0.000954 -0.000715 -1.371254 0.657173 -106.534386 1441.140503
8 1441.140503 -0.000954 -0.000715 -1.375803 0.661152 -106.119766 1441.140503
[L_Leg03]
6 1686.963989 -0.000715 -0.000954 0.054229 -0.013156 95.602852 1686.963989
7 1686.963989 -0.000715 -0.000954 0.054301 -0.012855 94.967018 1686.963989
8 1686.963989 -0.000715 -0.000954 0.055998 -0.014577 94.762047 1686.963989
[L_Foot]
6 3041.570068 -30.715107 11.297464 -14.754644 16.712557 76.312149 3041.746094
7 3041.570068 -30.715107 11.297464 -13.921194 16.848970 75.807014 3041.746094
8 3041.570068 -30.715107 11.297464 -13.367297 16.931623 74.556793 3041.746094
[L_Toe1_01]
6 -188.216690 -224.732346 -21.137953 89.551331 -2.794614 -164.392914 293.899567
7 -188.216690 -224.732346 -21.137953 89.494690 -2.560410 -164.056702 293.899567
8 -188.216690 -224.732346 -21.137953 89.439445 -2.325885 -163.720795 293.899567
[L_Toe2_01]
6 200.746536 -219.926590 148.838394 -77.585381 -14.031445 -44.572201 332.896027
7 200.746536 -219.926590 148.838394 -77.613190 -13.894168 -44.593964 332.896027
8 200.746536 -219.926590 148.838394 -77.641045 -13.756907 -44.615784 332.896027
[L_Toe3_01]
6 188.832520 -219.859131 -191.078659 -105.448547 15.258676 -45.712231 347.140900
7 188.832520 -219.859131 -191.078659 -105.585320 15.605749 -45.913845 347.140900
8 188.832520 -219.859131 -191.078659 -105.723595 15.952366 -46.116665 347.140900
[planeAlignerLeft]
6 -21.941893 -614.073120 17.490141 0.000000 -89.972023 -90.014915 614.713867
7 -28.007753 -615.626282 12.959532 0.000000 -90.000000 -90.017578 616.399292
8 -34.073608 -617.179382 8.428922 0.000000 -89.960434 -90.020218 618.176758
[L_Toe1_02]
6 413.761139 0.000477 0.000000 0.001409 -22.833572 0.001409 413.761139
7 413.761139 0.000477 0.000000 0.001407 -23.014647 0.001407 413.761139
8 413.761139 0.000477 0.000000 0.001406 -23.195721 0.001406 413.761139
[L_Toe1_03]
6 464.317322 0.000358 -0.000089 0.012461 79.190651 0.012461 464.317322
7 464.317322 0.000358 -0.000089 0.011470 78.254654 0.011470 464.317322
8 464.317322 0.000358 -0.000089 0.010524 77.193062 0.010524 464.317322
[L_Toe2_02]
6 342.235809 -0.000477 0.000238 0.001180 -77.946869 0.001180 342.235809
7 342.235809 -0.000477 0.000238 0.001180 -78.108490 0.001180 342.235809
8 342.235809 -0.000477 0.000238 0.001180 -78.270103 0.001180 342.235809
[L_Toe2_03]
6 420.210846 -0.000715 0.000000 -179.997009 76.109581 -179.993484 420.210846
7 420.210846 -0.000715 0.000000 -179.997314 75.151627 -179.993790 420.210846
8 420.210846 -0.000715 0.000000 -179.997589 74.193588 -179.994049 420.210846
[L_Toe3_02]
6 329.270111 0.000954 0.000000 0.001177 -81.845337 0.001177 329.270111
7 329.270111 0.000954 0.000000 0.001177 -81.888573 0.001177 329.270111
8 329.270111 0.000954 0.000000 0.001177 -81.931824 0.001177 329.270111
[L_Toe3_03]
6 439.137451 -0.001907 0.000954 -179.998001 72.501381 -179.994461 439.137451
7 439.137451 -0.001907 0.000954 -179.998077 72.099365 -179.994537 439.137451
8 439.137451 -0.001907 0.000954 -179.998169 71.697365 -179.994614 439.137451
[planeLockWeightLeft]
6 1000.000488 -0.000305 -0.000250 -0.011826 -0.004376 0.005620 1000.000488
7 1000.000488 -0.000305 -0.000249 -0.011826 -0.004376 0.005620 1000.000488
8 1000.000488 -0.000305 -0.000247 -0.011826 -0.004376 0.005620 1000.000488
[R_Leg01]
6 761.455627 -0.001907 -0.000358 92.964607 -33.007465 80.414253 761.455688
7 761.455627 -0.001907 -0.000358 92.197960 -28.505169 80.003647 761.455688
8 761.455627 -0.001907 -0.000358 91.477943 -25.235039 79.148575 761.455688
[R_Leg02]
6 1441.140625 0.000000 -0.000238 0.205682 0.015118 -77.557312 1441.140625
7 1441.140625 0.000000 -0.000238 0.215771 0.029511 -74.518745 1441.140625
8 1441.140625 0.000000 -0.000238 0.217319 0.032629 -72.506340 1441.140625
[R_Leg03]
6 1686.963989 0.000954 0.001431 -0.092788 0.013174 84.657784 1686.963989
7 1686.963989 0.000954 0.001431 -0.092781 0.013217 84.711296 1686.963989
8 1686.963989 0.000954 0.001431 -0.092733 0.013559 85.134361 1686.963989
[R_Foot]
6 3041.560059 -30.531288 -11.204481 11.308314 -20.694159 37.666943 3041.734131
7 3041.560059 -30.531288 -11.204481 11.923689 -20.868731 35.341084 3041.734131
8 3041.560059 -30.531288 -11.204481 12.546814 -21.019787 33.010822 3041.734131
[planeAlignerRight]
6 -102.861931 -632.829895 52.605324 0.000000 -89.951546 -90.014481 643.289612
7 -132.532974 -664.339111 66.511024 0.000000 -89.972023 -90.016403 680.687256
8 -157.786270 -693.487061 76.960121 0.000000 -89.960434 -90.018311 715.362610
[R_Toe1_01]
6 -188.383347 -224.864899 21.052242 90.909950 -0.768046 -159.186478 294.101532
7 -188.383347 -224.864899 21.052242 90.889091 -1.448590 -154.878815 294.101532
8 -188.383347 -224.864899 21.052242 90.805817 -1.927851 -151.004852 294.101532
[R_Toe2_01]
6 200.637817 -220.002121 -148.787384 -101.842918 11.269565 -44.297581 332.857574
7 200.637817 -220.002121 -148.787384 -102.375000 10.472614 -46.863194 332.857574
8 200.637817 -220.002121 -148.787384 -102.869057 9.653121 -49.414780 332.857574
[R_Toe3_01]
6 188.606735 -220.092957 191.126343 -72.470520 -20.795099 -48.683258 347.192566
7 188.606735 -220.092957 191.126343 -71.380814 -21.319662 -51.791180 347.192566
8 188.606735 -220.092957 191.126343 -70.258339 -21.788126 -54.919949 347.192566
[planeLockWeightRight]
6 999.999756 0.000381 -0.000674 -0.011823 -0.004379 -0.000027 999.999756
7 999.999695 0.000458 -0.000656 -0.011823 -0.004379 -0.000027 999.999695
8 999.999695 0.000534 -0.000638 -0.011823 -0.004379 -0.000027 999.999695
[R_Toe1_02]
6 413.762085 0.000477 -0.000119 0.001388 -25.434610 0.001388 413.762085
7 413.762085 0.000477 -0.000119 0.001384 -26.007854 0.001384 413.762085
8 413.762085 0.000477 -0.000119 0.001390 -25.236916 0.001390 413.762085
[R_Toe1_03]
6 464.317810 0.000000 0.001088 0.005163 63.720886 0.005163 464.317810
7 464.317810 0.000000 0.001088 0.003764 53.663731 0.003764 464.317810
8 464.317810 0.000000 0.001088 0.002907 42.376083 0.002907 464.317810
[R_Toe2_02]
6 342.234741 -0.000954 0.000238 -0.002333 -79.684166 -0.002333 342.234741
7 342.234741 -0.000954 0.000238 -0.002332 -79.956543 -0.002332 342.234741
8 342.234741 -0.000954 0.000238 -0.002332 -79.973732 -0.002332 342.234741
[R_Toe2_03]
6 420.210846 0.000715 -0.000268 -179.995636 64.181473 -179.999222 420.210846
7 420.210846 0.000715 -0.000268 -179.995728 63.151104 -179.999329 420.210846
8 420.210846 0.000715 -0.000268 -179.995743 62.990929 -179.999344 420.210846
[R_Toe3_02]
6 329.270355 -0.000477 -0.000954 0.001176 -82.484436 0.001176 329.270355
7 329.270355 -0.000477 -0.000954 0.001176 -82.569855 0.001176 329.270355
8 329.270355 -0.000477 -0.000954 0.001176 -82.550125 0.001176 329.270355
[R_Toe3_03]
6 439.137939 0.000238 0.001431 -179.998734 68.231812 -179.995178 439.137939
7 439.137939 0.000238 0.001431 -179.998657 68.778114 -179.995102 439.137939
8 439.137939 0.000238 0.001431 -179.998566 69.324364 -179.995026 439.137939
[Rear_Leg02]
6 1162.777710 -0.029802 0.005960 7.785237 -7.609341 -95.143234 1162.777710
7 1162.777710 -0.029802 0.005960 4.302080 -7.269096 -85.271278 1162.777710
8 1162.777710 -0.029802 0.005960 3.060045 -12.852510 -74.071312 1162.777710
[Rear_Leg03]
6 607.192505 -0.013351 -0.073195 0.010148 -0.005759 75.501633 607.192505
7 607.192505 -0.013351 -0.073195 0.010348 -0.005392 71.404152 607.192505
8 607.192505 -0.013351 -0.073195 0.010612 -0.004853 65.505623 607.192505
[Rear_Leg04]
6 995.874512 -0.020504 -0.011921 -0.045928 -0.016092 84.798332 995.874573
7 995.874512 -0.020504 -0.011921 -0.041197 -0.016486 73.741882 995.874573
8 995.874512 -0.020504 -0.011921 -0.043322 -0.018580 60.636841 995.874573
[Rear_Foot]
6 3096.176270 -0.067472 -0.041425 -93.116669 79.180946 70.477669 3096.176270
7 3096.176270 -0.067472 -0.041425 -122.393166 80.412308 50.578865 3096.176270
8 3096.176270 -0.067472 -0.041425 -138.472504 72.462914 47.307068 3096.176270
[planeAlignerCenter]
6 68.338768 148.749374 -894.030029 0.001526 -0.001783 -171.130127 908.892883
7 84.802513 118.479523 -917.279724 0.001502 -0.001804 -169.546829 928.779297
8 95.687897 82.827118 -925.980042 0.001492 -0.001812 -168.935806 934.588440
[Rear_Toe1_01]
6 0.653352 83.966492 -371.173737 -5.111633 50.869415 92.560371 380.553192
7 0.653352 83.966492 -371.173737 -6.485707 53.094025 92.654007 380.553192
8 0.653352 83.966492 -371.173737 -2.791932 37.147560 95.664383 380.553192
[Rear_Toe2_01]
6 178.200760 -294.826019 -362.060547 37.390999 76.768570 -21.229218 499.765686
7 178.200760 -294.826019 -362.060547 27.099039 72.874886 -29.643736 499.765686
8 178.200760 -294.826019 -362.060547 11.440121 58.147949 -43.029476 499.765686
[Rear_Toe3_01]
6 -153.359680 -308.780914 -362.060852 27.027906 80.141403 -72.053452 499.952881
7 -153.359680 -308.780914 -362.060852 23.741436 76.341187 -72.928482 499.952881
8 -153.359680 -308.780914 -362.060852 10.031311 60.094875 -84.236885 499.952881
[planeLockWeightCenter]
6 648.000122 0.000458 0.000000 -0.011814 -0.004373 -0.000015 648.000122
7 896.000183 0.000305 -0.000019 -0.011814 -0.004373 -0.000015 896.000183
8 1000.000122 0.000305 -0.000048 -0.011814 -0.004373 -0.000015 1000.000122
[Rear_Toe1_02]
6 379.707825 0.194073 0.000477 -0.002643 -33.005447 -0.002643 379.707855
7 379.707825 0.194073 0.000477 -0.002641 -33.154919 -0.002641 379.707855
8 379.707825 0.194073 0.000477 -0.000219 -31.363270 0.006922 379.707855
[Rear_Toe1_03]
6 500.129700 0.165701 0.000119 -0.016985 86.483871 -0.020483 500.129761
7 500.129700 0.165701 0.000119 -0.013124 85.570793 -0.016623 500.129761
8 500.129700 0.165701 0.000119 -0.000269 50.219849 0.007168 500.129761
[Rear_Toe2_02]
6 340.494507 0.000238 -0.000954 0.001186 -73.453568 0.001186 340.494507
7 340.494507 0.000238 -0.000954 0.001210 -61.960922 0.001210 340.494507
8 340.494507 0.000238 -0.000954 0.001195 -68.508789 0.001195 340.494507
[Rear_Toe2_03]
6 433.103577 0.000000 0.000238 0.009325 75.539108 0.009325 433.103546
7 433.103577 0.000000 0.000238 0.004345 58.658669 0.004345 433.103546
8 433.103577 0.000000 0.000238 0.006097 67.802254 0.006097 433.103546
[Rear_Toe3_02]
6 340.494141 -0.000358 -0.000477 0.001182 -76.747391 0.001182 340.494171
7 340.494141 -0.000358 -0.000477 0.008329 -67.381676 -0.009502 340.494171
8 340.494141 -0.000358 -0.000477 0.001185 -74.158638 0.001185 340.494171
[Rear_Toe3_03]
6 433.103577 0.001431 -0.000238 0.015491 81.310043 0.015491 433.103546
7 433.103577 0.001431 -0.000238 -0.000991 66.118248 -0.004565 433.103546
8 433.103577 0.001431 -0.000238 0.010183 76.764252 0.010183 433.103546
[Back_Bone]
6 1312.175781 -701.934692 0.000954 -3.274529 -1.631327 -83.908981 1488.125488
7 1312.175781 -701.934692 0.000954 -3.206084 -2.430949 -83.410004 1488.125488
8 1312.175781 -701.934692 0.000954 -2.959318 -2.899582 -82.784332 1488.125488
[Head]
6 1406.159424 809.709290 0.001431 -3.107840 1.919443 1.159057 1622.625488
7 1406.159424 809.709290 0.001431 -3.501349 1.738284 0.701751 1622.625488
8 1406.159424 809.709290 0.001431 -3.893328 1.554011 0.245782 1622.625488
[Motor_Bone]
6 1158.364380 -417.834747 0.000477 1.114805 -1.132542 -107.122055 1231.419434
7 1158.364380 -417.834747 0.000477 -1.034497 -1.094875 -107.077385 1231.419434
8 1158.364380 -417.834747 0.000477 -2.188165 -1.022762 -107.007042 1231.419434
[Ping_Mechanism]
6 1188.505127 -410.725708 -11.279182 0.000103 -0.000053 82.120995 1257.524292
7 1176.244141 -398.031006 -9.125593 0.000103 -0.000053 82.120995 1241.797974
8 1167.127808 -386.638153 -5.070416 0.000103 -0.000053 82.120995 1229.512939
[BN_LookIK]
6 193.241119 1380.371704 -0.002861 0.000000 89.965736 -31.038179 1393.832153
7 193.241119 1380.371704 -0.002861 0.000000 89.965736 -31.038179 1393.832153
8 193.241119 1380.371704 -0.002861 0.000000 89.965736 -31.038179 1393.832153
[bottomMouth]
6 -435.092926 615.759399 -0.000954 -0.000022 0.000016 73.527184 753.966492
7 -435.092926 615.759399 -0.000954 -0.000022 0.000016 73.527184 753.966492
8 -435.092926 615.759399 -0.000954 -0.000022 0.000016 73.527184 753.966492
[L_Mouth01]
6 554.440979 7.658243 838.222046 150.204178 23.759130 109.605339 1005.027161
7 554.440979 7.658243 838.222046 150.204178 23.759130 109.605339 1005.027161
8 554.440979 7.658243 838.222046 150.204178 23.759130 109.605339 1005.027161
[L_mouthFront]
6 551.629089 934.514771 339.150421 0.000081 2.804060 79.119301 1136.941284
7 551.629089 934.514771 339.150421 0.000081 2.804060 79.119301 1136.941284
8 551.629089 934.514771 339.150421 0.000081 2.804060 79.119301 1136.941284
[mouthGun]
6 55.332661 1627.420898 0.000000 0.000023 0.000009 -11.038128 1628.361328
7 55.332661 1627.420898 0.000000 0.000023 0.000009 -11.038128 1628.361328
8 55.332661 1627.420898 0.000000 0.000023 0.000009 -11.038128 1628.361328
[R_Mouth01]
6 554.442383 7.659197 -838.223938 29.795891 -23.759109 109.605331 1005.029541
7 554.442383 7.659197 -838.223938 29.795891 -23.759109 109.605331 1005.029541
8 554.442383 7.659197 -838.223938 29.795891 -23.759109 109.605331 1005.029541
[R_mouthFront]
6 551.629089 934.514282 -339.151367 0.000029 -2.803930 79.119133 1136.941162
7 551.629089 934.514282 -339.151367 0.000029 -2.803930 79.119133 1136.941162
8 551.629089 934.514282 -339.151367 0.000029 -2.803930 79.119133 1136.941162
[TopMouth]
6 461.269867 -56.106091 -0.008583 -0.000059 -0.000268 92.025169 464.669525
7 461.269867 -56.106091 -0.008583 -0.000059 -0.000268 92.025169 464.669525
8 461.269867 -56.106091 -0.008583 -0.000059 -0.000268 92.025169 464.669525
[weapon_bone]
6 -987.239868 1448.372803 0.001431 0.000000 89.965736 -31.038221 1752.833740
7 -987.239868 1448.372803 0.001431 0.000000 89.965736 -31.038221 1752.833740
8 -987.239868 1448.372803 0.001431 0.000000 89.965736 -31.038221 1752.833740
